# xmcd
#
# Track frame offsets:
#	150
#	16060
#	29720
#	45302
#	59772
#	74165
#	85252
#	95622
#	110247
#	124047
#	134830
#	160232
#	175425
#	189932
#	199500
#	214160
#	223885
#	238767
#
# Disc length: 3338 seconds
#
# Revision: 3
# Processed by: cddbd v1.5.1PL0 Copyright (c) Steve Scherf et al.
# Submitted via: dBpowerAMP V4.0
#
DISCID=1b0d0812
DTITLE=Various Artist - Christmas in The Country
DYEAR=1992
DGENRE=Country
TTITLE0=Doug Stone - O Little Town of Bethlehem
TTITLE1=George Strait - White Christmas
TTITLE2=Suzy Bogguss - The First Noel
TTITLE3=Skip Ewing - Christmas Carol
TTITLE4=The Gatlins - Do You Hear What I Hear
TTITLE5=Eddy Raven . Thank God For Kids
TTITLE6=Tanya Tucker - Silver Bells
TTITLE7=Reba McEntire - The Christmas Song
TTITLE8=Mike Reid - O Come, o Come Emmanuel
TTITLE9=Willie Nelson - Away in a Manger
TTITLE10=Steve Wariner - Medley
TTITLE11=Lee Greenwood - Let it Snow! Let it Snow! Let it Snow!
TTITLE12=Dolly Parton - I'll be Home For Christmas
TTITLE13=Eddie Rabbitt - Rockin' Around The Christmas Tree
TTITLE14=Gary Fjellgaard - Santa Claus Comes by Boat
TTITLE15=Sweethearst Of The Rodeo - Jingle Bell Rock
TTITLE16=Larry Gatlin - Sweet Baby Jesus
TTITLE17=Vernon Gosdin - Joy to The World
EXTD=
EXTT0=
EXTT1=
EXTT2=
EXTT3=
EXTT4=
EXTT5=
EXTT6=
EXTT7=
EXTT8=
EXTT9=
EXTT10=
EXTT11=
EXTT12=
EXTT13=
EXTT14=
EXTT15=
EXTT16=
EXTT17=
PLAYORDER=
